<svg width="35" height="39" viewBox="0 0 35 39" fill="none" xmlns="http://www.w3.org/2000/svg">
<g id="Group 5">
<path id="Vector" d="M27.7421 12.3969C27.7421 9.63944 26.6468 6.99496 24.697 5.04517C22.7472 3.09538 20.1027 2 17.3453 2C14.5879 2 11.9434 3.09538 9.9936 5.04517C8.04381 6.99496 6.94843 9.63944 6.94843 12.3969C6.94843 24.5265 1.75 27.9921 1.75 27.9921H32.9406C32.9406 27.9921 27.7421 24.5265 27.7421 12.3969Z" stroke="#D0F8FF" stroke-width="3.46562" stroke-linecap="round" stroke-linejoin="round"/>
<path id="Vector_2" d="M20.3432 34.9233C20.0385 35.4485 19.6013 35.8844 19.0751 36.1875C18.549 36.4905 17.9526 36.65 17.3454 36.65C16.7383 36.65 16.1418 36.4905 15.6157 36.1875C15.0896 35.8844 14.6523 35.4485 14.3477 34.9233" stroke="#D0F8FF" stroke-width="3.46562" stroke-linecap="round" stroke-linejoin="round"/>
</g>
</svg>
